<svg width="28" height="28" viewBox="0 0 28 28" fill="none" xmlns="http://www.w3.org/2000/svg">
<path d="M8.98046 18.0594C9.30175 17.6102 9.19806 16.9855 8.74885 16.6643C8.29964 16.343 7.67502 16.4467 7.35373 16.8959L8.98046 18.0594ZM7.92129 21.1787L6.9816 21.5207L7.92129 21.1787ZM15.3026 25.3206L15.6446 26.2603L15.3026 25.3206ZM21.5954 23.0302L21.2533 22.0906L21.5954 23.0302ZM24.0796 17.8179L23.1399 18.1599L24.0796 17.8179ZM21.476 10.6645L22.4157 10.3225L21.476 10.6645ZM19.233 9.61856L19.575 10.5583L19.575 10.5583L19.233 9.61856ZM19.2275 9.62056L18.8855 8.68086L18.8855 8.68087L19.2275 9.62056ZM17.2454 12.1981C17.4343 12.7171 18.0081 12.9847 18.5271 12.7958C19.0461 12.6069 19.3137 12.033 19.1248 11.5141L17.2454 12.1981ZM8.45453 18.7778C8.64343 19.2968 9.21727 19.5644 9.73625 19.3755C10.2552 19.1866 10.5228 18.6127 10.3339 18.0938L8.45453 18.7778ZM5.31621 7.23151L4.3764 7.57322L4.37652 7.57353L5.31621 7.23151ZM6.36602 4.98896L6.70553 5.92956L6.70555 5.92956L6.36602 4.98896ZM8.6153 6.04191L7.67549 6.38362L7.67561 6.38393L8.6153 6.04191ZM10.7818 14.9181C10.9707 15.4371 11.5445 15.7047 12.0635 15.5158C12.5825 15.3269 12.8501 14.7531 12.6612 14.2341L10.7818 14.9181ZM10.6653 14.598C10.8542 15.117 11.428 15.3846 11.947 15.1957C12.466 15.0068 12.7336 14.433 12.5447 13.914L10.6653 14.598ZM10.8085 12.0678L9.86035 12.3855C9.86307 12.3936 9.86591 12.4017 9.86884 12.4098L10.8085 12.0678ZM14.1139 10.8647L15.0536 10.5227C15.0507 10.5146 15.0476 10.5066 15.0445 10.4986L14.1139 10.8647ZM13.9707 13.395C14.1596 13.9139 14.7334 14.1815 15.2524 13.9926C15.7714 13.8037 16.0389 13.2299 15.85 12.7109L13.9707 13.395ZM13.8998 13.2395C14.0887 13.7585 14.6625 14.0261 15.1815 13.8372C15.7005 13.6483 15.9681 13.0744 15.7792 12.5555L13.8998 13.2395ZM14.2982 11.4103L15.2379 11.0683H15.2379L14.2982 11.4103ZM17.5871 10.2133L18.5268 9.87124L17.5871 10.2133ZM17.246 12.1997C17.4349 12.7187 18.0087 12.9863 18.5277 12.7974C19.0467 12.6085 19.3143 12.0347 19.1254 11.5157L17.246 12.1997ZM7.35373 16.8959C6.40144 18.2273 6.36711 19.8324 6.9816 21.5207L8.86098 20.8367C8.39572 19.5584 8.52572 18.6952 8.98046 18.0594L7.35373 16.8959ZM6.9816 21.5207C7.49699 22.9368 8.94426 24.349 10.4757 25.2755C11.9847 26.1885 13.9744 26.8682 15.6446 26.2603L14.9605 24.3809C14.1711 24.6683 12.8753 24.3898 11.511 23.5644C10.1692 22.7525 9.15561 21.6462 8.86098 20.8367L6.9816 21.5207ZM15.6446 26.2603L21.9374 23.9699L21.2533 22.0906L14.9605 24.3809L15.6446 26.2603ZM21.9374 23.9699C24.9515 22.8729 25.7905 19.5946 25.0193 17.4759L23.1399 18.1599C23.6018 19.4288 23.0509 21.4363 21.2533 22.0906L21.9374 23.9699ZM25.0193 17.4759L22.4157 10.3225L20.5363 11.0065L23.1399 18.1599L25.0193 17.4759ZM22.4157 10.3225C22.1662 9.63711 21.6547 9.07891 20.9937 8.77068L20.1485 10.5833C20.3288 10.6674 20.4683 10.8196 20.5363 11.0065L22.4157 10.3225ZM20.9937 8.77068C20.3327 8.46245 19.5763 8.42942 18.891 8.67887L19.575 10.5583C19.7619 10.4902 19.9682 10.4992 20.1485 10.5833L20.9937 8.77068ZM18.891 8.67887L18.8855 8.68086L19.5695 10.5603L19.575 10.5583L18.891 8.67887ZM18.8855 8.68087C18.2016 8.92979 17.6446 9.44019 17.337 10.0998L19.1496 10.945C19.233 10.7662 19.3841 10.6278 19.5695 10.5603L18.8855 8.68087ZM17.337 10.0998C17.0294 10.7594 16.9965 11.5142 17.2454 12.1981L19.1248 11.5141C19.0573 11.3286 19.0662 11.1239 19.1496 10.945L17.337 10.0998ZM10.3339 18.0938L6.2559 6.88949L4.37652 7.57353L8.45453 18.7778L10.3339 18.0938ZM6.25601 6.8898C6.22236 6.79724 6.20729 6.69896 6.21168 6.60057L4.21366 6.5115C4.19756 6.87267 4.25287 7.23346 4.3764 7.57322L6.25601 6.8898ZM6.21168 6.60057C6.21607 6.50218 6.23982 6.40563 6.28157 6.31643L4.47023 5.46848C4.31695 5.7959 4.22976 6.15034 4.21366 6.5115L6.21168 6.60057ZM6.28157 6.31643C6.32333 6.22723 6.38227 6.14715 6.45502 6.08077L5.10691 4.6034C4.83986 4.84709 4.6235 5.14106 4.47023 5.46848L6.28157 6.31643ZM6.45502 6.08077C6.52777 6.01438 6.6129 5.963 6.70553 5.92956L6.02651 4.04836C5.68646 4.1711 5.37396 4.35972 5.10691 4.6034L6.45502 6.08077ZM6.70555 5.92956C6.89439 5.86139 7.10257 5.87091 7.2844 5.95604L8.13235 4.14469C7.47084 3.83502 6.71351 3.80038 6.0265 4.04837L6.70555 5.92956ZM7.2844 5.95604C7.46624 6.04116 7.60689 6.19493 7.67549 6.38362L9.55511 5.70021C9.30553 5.01377 8.79386 4.45436 8.13235 4.14469L7.2844 5.95604ZM7.67561 6.38393L10.7818 14.9181L12.6612 14.2341L9.55499 5.69989L7.67561 6.38393ZM12.5447 13.914L11.7482 11.7258L9.86884 12.4098L10.6653 14.598L12.5447 13.914ZM11.7567 11.7501C11.6938 11.5623 11.7067 11.3574 11.7927 11.1791L9.99113 10.3106C9.67868 10.9587 9.63175 11.7032 9.86035 12.3855L11.7567 11.7501ZM11.7927 11.1791C11.8787 11.0007 12.0309 10.863 12.217 10.7953L11.533 8.91589C10.8568 9.16198 10.3036 9.66243 9.99113 10.3106L11.7927 11.1791ZM12.217 10.7953C12.4031 10.7276 12.6082 10.7352 12.7887 10.8165L13.6106 8.9932C12.9546 8.69754 12.2091 8.6698 11.533 8.91589L12.217 10.7953ZM12.7887 10.8165C12.9692 10.8979 13.1108 11.0466 13.1833 11.2308L15.0445 10.4986C14.7811 9.82905 14.2665 9.28886 13.6106 8.9932L12.7887 10.8165ZM13.1742 11.2067L13.9707 13.395L15.85 12.7109L15.0536 10.5227L13.1742 11.2067ZM15.7792 12.5555L15.2379 11.0683L13.3585 11.7524L13.8998 13.2395L15.7792 12.5555ZM15.2379 11.0683C15.1699 10.8814 15.1789 10.6751 15.2629 10.4948L13.4503 9.6496C13.1421 10.3106 13.1091 11.067 13.3585 11.7524L15.2379 11.0683ZM15.2629 10.4948C15.347 10.3146 15.4992 10.1751 15.6862 10.107L15.0021 8.22764C14.3168 8.47709 13.7586 8.98858 13.4503 9.6496L15.2629 10.4948ZM15.6862 10.107C15.8731 10.039 16.0794 10.048 16.2596 10.1321L17.1049 8.31945C16.4439 8.01122 15.6875 7.97819 15.0021 8.22764L15.6862 10.107ZM16.2596 10.1321C16.4399 10.2161 16.5794 10.3684 16.6474 10.5553L18.5268 9.87124C18.2774 9.18588 17.7659 8.62769 17.1049 8.31945L16.2596 10.1321ZM16.6474 10.5553L17.246 12.1997L19.1254 11.5157L18.5268 9.87124L16.6474 10.5553Z" fill="white"/>
</svg>
